<mxfile host="app.diagrams.net" modified="2024-02-07T17:50:03.488Z" agent="Mozilla/5.0 (Windows NT 10.0; Win64; x64) AppleWebKit/537.36 (KHTML, like Gecko) Chrome/120.0.0.0 Safari/537.36 OPR/106.0.0.0" etag="-AhkXlGnU8FU3vsiHGKP" version="23.1.1" type="github">
  <diagram name="Page-1" id="CdH5zXiS5yHPEZkoT4qY">
    <mxGraphModel dx="1121" dy="637" grid="1" gridSize="10" guides="1" tooltips="1" connect="1" arrows="1" fold="1" page="1" pageScale="1" pageWidth="850" pageHeight="1100" math="0" shadow="0">
      <root>
        <mxCell id="0" />
        <mxCell id="1" parent="0" />
        <mxCell id="LKpVY0tLk5s1OVpQJArN-2" value="" style="ellipse;whiteSpace=wrap;html=1;aspect=fixed;" vertex="1" parent="1">
          <mxGeometry x="360" y="240" width="80" height="80" as="geometry" />
        </mxCell>
        <mxCell id="LKpVY0tLk5s1OVpQJArN-3" value="" style="ellipse;whiteSpace=wrap;html=1;aspect=fixed;" vertex="1" parent="1">
          <mxGeometry x="200" y="240" width="80" height="80" as="geometry" />
        </mxCell>
        <mxCell id="LKpVY0tLk5s1OVpQJArN-4" value="" style="endArrow=classic;html=1;rounded=0;entryX=0;entryY=0.5;entryDx=0;entryDy=0;" edge="1" parent="1">
          <mxGeometry width="50" height="50" relative="1" as="geometry">
            <mxPoint x="120" y="280" as="sourcePoint" />
            <mxPoint x="200" y="280" as="targetPoint" />
          </mxGeometry>
        </mxCell>
        <mxCell id="LKpVY0tLk5s1OVpQJArN-5" value="" style="endArrow=classic;html=1;rounded=0;entryX=0;entryY=0.5;entryDx=0;entryDy=0;exitX=1;exitY=0.5;exitDx=0;exitDy=0;" edge="1" parent="1" source="LKpVY0tLk5s1OVpQJArN-3" target="LKpVY0tLk5s1OVpQJArN-2">
          <mxGeometry width="50" height="50" relative="1" as="geometry">
            <mxPoint x="290" y="310" as="sourcePoint" />
            <mxPoint x="410" y="310" as="targetPoint" />
          </mxGeometry>
        </mxCell>
        <mxCell id="LKpVY0tLk5s1OVpQJArN-6" value="&lt;b style=&quot;font-size: 15px;&quot;&gt;S0&lt;/b&gt;" style="text;html=1;strokeColor=none;fillColor=none;align=center;verticalAlign=middle;whiteSpace=wrap;rounded=0;fontSize=15;" vertex="1" parent="1">
          <mxGeometry x="210" y="265" width="60" height="30" as="geometry" />
        </mxCell>
        <mxCell id="LKpVY0tLk5s1OVpQJArN-8" value="~" style="text;html=1;strokeColor=none;fillColor=none;align=center;verticalAlign=middle;whiteSpace=wrap;rounded=0;fontSize=15;" vertex="1" parent="1">
          <mxGeometry x="265" y="247.5" width="105" height="30" as="geometry" />
        </mxCell>
        <mxCell id="LKpVY0tLk5s1OVpQJArN-24" style="edgeStyle=orthogonalEdgeStyle;rounded=0;orthogonalLoop=1;jettySize=auto;html=1;entryX=1;entryY=0;entryDx=0;entryDy=0;exitX=0;exitY=0;exitDx=0;exitDy=0;" edge="1" parent="1" source="LKpVY0tLk5s1OVpQJArN-9" target="LKpVY0tLk5s1OVpQJArN-9">
          <mxGeometry relative="1" as="geometry">
            <mxPoint x="650" y="240" as="targetPoint" />
            <Array as="points">
              <mxPoint x="570" y="252" />
              <mxPoint x="570" y="210" />
              <mxPoint x="628" y="210" />
            </Array>
          </mxGeometry>
        </mxCell>
        <mxCell id="LKpVY0tLk5s1OVpQJArN-9" value="" style="ellipse;whiteSpace=wrap;html=1;aspect=fixed;" vertex="1" parent="1">
          <mxGeometry x="560" y="240" width="80" height="80" as="geometry" />
        </mxCell>
        <mxCell id="LKpVY0tLk5s1OVpQJArN-10" value="" style="ellipse;whiteSpace=wrap;html=1;aspect=fixed;" vertex="1" parent="1">
          <mxGeometry x="567.5" y="247.5" width="65" height="65" as="geometry" />
        </mxCell>
        <mxCell id="LKpVY0tLk5s1OVpQJArN-11" value="" style="endArrow=classic;html=1;rounded=0;entryX=0;entryY=0.5;entryDx=0;entryDy=0;exitX=1;exitY=0.5;exitDx=0;exitDy=0;" edge="1" parent="1" target="LKpVY0tLk5s1OVpQJArN-9">
          <mxGeometry width="50" height="50" relative="1" as="geometry">
            <mxPoint x="440" y="280" as="sourcePoint" />
            <mxPoint x="570" y="310" as="targetPoint" />
          </mxGeometry>
        </mxCell>
        <mxCell id="LKpVY0tLk5s1OVpQJArN-12" value="&lt;b&gt;&lt;font style=&quot;font-size: 15px;&quot;&gt;S85&lt;/font&gt;&lt;/b&gt;" style="text;html=1;strokeColor=none;fillColor=none;align=center;verticalAlign=middle;whiteSpace=wrap;rounded=0;" vertex="1" parent="1">
          <mxGeometry x="570" y="265" width="60" height="30" as="geometry" />
        </mxCell>
        <mxCell id="LKpVY0tLk5s1OVpQJArN-13" value="&amp;lt;character&amp;gt;" style="text;html=1;strokeColor=none;fillColor=none;align=center;verticalAlign=middle;whiteSpace=wrap;rounded=0;fontSize=15;" vertex="1" parent="1">
          <mxGeometry x="447" y="247.5" width="105" height="30" as="geometry" />
        </mxCell>
        <mxCell id="LKpVY0tLk5s1OVpQJArN-14" value="" style="ellipse;whiteSpace=wrap;html=1;aspect=fixed;" vertex="1" parent="1">
          <mxGeometry x="367.5" y="247.5" width="65" height="65" as="geometry" />
        </mxCell>
        <mxCell id="LKpVY0tLk5s1OVpQJArN-7" value="&lt;b&gt;&lt;font style=&quot;font-size: 15px;&quot;&gt;S84&lt;/font&gt;&lt;/b&gt;" style="text;html=1;strokeColor=none;fillColor=none;align=center;verticalAlign=middle;whiteSpace=wrap;rounded=0;" vertex="1" parent="1">
          <mxGeometry x="370" y="265" width="60" height="30" as="geometry" />
        </mxCell>
        <mxCell id="LKpVY0tLk5s1OVpQJArN-19" value="" style="ellipse;whiteSpace=wrap;html=1;aspect=fixed;" vertex="1" parent="1">
          <mxGeometry x="720" y="240" width="80" height="80" as="geometry" />
        </mxCell>
        <mxCell id="LKpVY0tLk5s1OVpQJArN-20" value="" style="ellipse;whiteSpace=wrap;html=1;aspect=fixed;" vertex="1" parent="1">
          <mxGeometry x="727.5" y="247.5" width="65" height="65" as="geometry" />
        </mxCell>
        <mxCell id="LKpVY0tLk5s1OVpQJArN-21" value="" style="endArrow=classic;html=1;rounded=0;entryX=0;entryY=0.5;entryDx=0;entryDy=0;exitX=1;exitY=0.5;exitDx=0;exitDy=0;" edge="1" parent="1" target="LKpVY0tLk5s1OVpQJArN-19">
          <mxGeometry width="50" height="50" relative="1" as="geometry">
            <mxPoint x="640" y="280" as="sourcePoint" />
            <mxPoint x="770" y="310" as="targetPoint" />
          </mxGeometry>
        </mxCell>
        <mxCell id="LKpVY0tLk5s1OVpQJArN-22" value="&lt;b&gt;&lt;font style=&quot;font-size: 15px;&quot;&gt;S86&lt;/font&gt;&lt;/b&gt;" style="text;html=1;strokeColor=none;fillColor=none;align=center;verticalAlign=middle;whiteSpace=wrap;rounded=0;" vertex="1" parent="1">
          <mxGeometry x="730" y="265" width="60" height="30" as="geometry" />
        </mxCell>
        <mxCell id="LKpVY0tLk5s1OVpQJArN-23" value="~" style="text;html=1;strokeColor=none;fillColor=none;align=center;verticalAlign=middle;whiteSpace=wrap;rounded=0;fontSize=15;" vertex="1" parent="1">
          <mxGeometry x="630" y="247.5" width="105" height="30" as="geometry" />
        </mxCell>
        <mxCell id="LKpVY0tLk5s1OVpQJArN-25" value="&amp;lt;character&amp;gt;" style="text;html=1;strokeColor=none;fillColor=none;align=center;verticalAlign=middle;whiteSpace=wrap;rounded=0;fontSize=15;" vertex="1" parent="1">
          <mxGeometry x="545" y="180" width="105" height="30" as="geometry" />
        </mxCell>
        <mxCell id="LKpVY0tLk5s1OVpQJArN-26" value="Start" style="text;html=1;strokeColor=none;fillColor=none;align=center;verticalAlign=middle;whiteSpace=wrap;rounded=0;fontSize=15;" vertex="1" parent="1">
          <mxGeometry x="84" y="247.5" width="105" height="30" as="geometry" />
        </mxCell>
      </root>
    </mxGraphModel>
  </diagram>
</mxfile>
